<svg width="59" height="75" viewBox="0 0 59 75" fill="none" xmlns="http://www.w3.org/2000/svg">
<g style="mix-blend-mode:luminosity">
<path d="M58.365 28.8651C58.365 44.8069 45.4417 57.7303 29.4999 57.7303C13.5581 57.7303 0.634766 44.8069 0.634766 28.8651C0.634766 12.9234 13.5581 0 29.4999 0C45.4417 0 58.365 12.9234 58.365 28.8651Z" fill="white" fill-opacity="0.6"/>
<path d="M54.4176 32.8123C54.4176 46.574 43.2615 57.7301 29.4998 57.7301C15.7381 57.7301 4.58203 46.574 4.58203 32.8123C4.58203 19.0506 15.7381 7.89453 29.4998 7.89453C43.2615 7.89453 54.4176 19.0506 54.4176 32.8123Z" fill="white" fill-opacity="0.8"/>
<path d="M29.5006 14.0625C17.5056 14.0625 7.79007 23.7818 7.79007 35.7695C7.78224 40.4515 9.29574 45.0094 12.1028 48.757L26.0286 72.874C26.1094 73.0295 26.1902 73.1842 26.2895 73.3266L26.3203 73.3797L26.3288 73.3751C26.6912 73.8803 27.1693 74.2914 27.7231 74.5741C28.2769 74.8568 28.8903 75.0028 29.5121 75C30.71 75 31.7539 74.455 32.4722 73.6152L32.5084 73.636L32.6462 73.3974C32.8494 73.1234 33.0296 72.8309 33.1597 72.5084L46.8029 48.8794C49.6693 45.1104 51.2181 40.5043 51.2111 35.7695C51.2111 23.7818 41.4956 14.0625 29.5006 14.0625ZM29.2858 46.7742C23.3757 46.7742 18.5887 41.9858 18.5887 36.0789C18.5887 30.172 23.3757 25.3836 29.2858 25.3836C35.1959 25.3836 39.9828 30.1728 39.9828 36.0789C39.9828 41.985 35.1959 46.7742 29.2858 46.7742Z" fill="#060606"/>
<path d="M29.5005 14.0625C41.4955 14.0625 51.211 23.7819 51.211 35.7695C51.218 40.5043 49.6694 45.1104 46.8031 48.8793L33.1598 72.5083C33.0297 72.8309 32.8495 73.1235 32.6462 73.3975L32.5083 73.636L32.4721 73.6152C31.7539 74.455 30.7101 75 29.5122 75C28.9293 75.0027 28.3536 74.8745 27.8277 74.6255L27.7231 74.5742C27.1693 74.2915 26.6913 73.8802 26.3289 73.375L26.3203 73.3798L26.2896 73.3265C26.1903 73.1842 26.1093 73.0295 26.0285 72.874L12.1028 48.7571C9.29581 45.0095 7.78225 40.4516 7.79007 35.7695C7.79007 23.7819 17.5056 14.0625 29.5005 14.0625ZM29.5005 15.7895C18.4593 15.7896 9.5171 24.7357 9.5171 35.7695V35.7724C9.5099 40.0801 10.9024 44.2736 13.485 47.7217L13.5468 47.8041L27.5432 72.0435L27.5609 72.0774C27.6172 72.1858 27.6507 72.2476 27.674 72.2875L27.7322 72.3684C27.9339 72.6496 28.1999 72.8785 28.5082 73.0359C28.8165 73.1932 29.1581 73.2746 29.5042 73.273H29.5122C30.1618 73.2729 30.7402 72.9831 31.1597 72.4927L31.2159 72.4266L31.2592 72.3687C31.4049 72.1723 31.499 72.0088 31.5582 71.8623L31.6035 71.7497L31.6642 71.6448L45.3622 47.9212L45.4283 47.834C48.0656 44.3663 49.4907 40.1284 49.4843 35.7721V35.7695C49.4843 24.7356 40.5418 15.7895 29.5005 15.7895ZM39.983 36.0788C39.9829 30.265 35.3444 25.5336 29.5621 25.3871L29.2859 25.3837C23.3759 25.3837 18.589 30.172 18.5889 36.0788L18.5923 36.3549C18.7363 42.0424 23.319 46.6265 29.0095 46.7707L29.2859 46.7741C35.1037 46.7741 39.8329 42.1334 39.9793 36.3549L39.983 36.0788ZM41.7098 36.0788C41.7098 42.9385 36.1499 48.5011 29.2859 48.5011C22.4221 48.5011 16.8618 42.9394 16.8618 36.0788C16.8619 29.2182 22.4221 23.6567 29.2859 23.6567C36.1498 23.6567 41.7097 29.2191 41.7098 36.0788Z" fill="white"/>
<rect x="16.6709" y="23.4375" width="25.6579" height="25.6579" rx="12.8289" fill="#060606"/>
<path d="M29.4994 23.4375C22.4178 23.4375 16.6704 29.1849 16.6704 36.2665C16.6704 43.348 22.4178 49.0954 29.4994 49.0954C36.5809 49.0954 42.3283 43.348 42.3283 36.2665C42.3283 29.1849 36.5809 23.4375 29.4994 23.4375ZM28.2165 46.4398C23.149 45.8112 19.2362 41.5007 19.2362 36.2665C19.2362 35.4711 19.3388 34.7141 19.5056 33.9701L25.6507 40.1151V41.398C25.6507 42.8092 26.8053 43.9638 28.2165 43.9638V46.4398ZM37.0684 43.1813C36.7349 42.1421 35.7855 41.398 34.6309 41.398H33.348V37.5493C33.348 36.8438 32.7707 36.2665 32.0652 36.2665H24.3678V33.7007H26.9336C27.6392 33.7007 28.2165 33.1234 28.2165 32.4178V29.852H30.7823C32.1934 29.852 33.348 28.6974 33.348 27.2862V26.7602C37.1069 28.2868 39.7625 31.9688 39.7625 36.2665C39.7625 38.9349 38.7362 41.3595 37.0684 43.1813Z" fill="white"/>
</g>
</svg>
